<svg width="72" height="72" viewBox="0 0 72 72" fill="none" xmlns="http://www.w3.org/2000/svg">
<path fill-rule="evenodd" clip-rule="evenodd" d="M45.806 5.53918C45.8856 5.50565 45.9726 5.49333 46.0584 5.50342C51.7743 6.17588 55.7567 7.82742 58.5684 10.3113C61.3805 12.7956 62.9684 16.0658 63.9831 19.8712C64.2496 20.8706 64.5492 21.8927 64.8501 22.9195C65.4963 25.1246 66.1487 27.3508 66.4932 29.4178C66.5367 29.679 66.369 29.9289 66.1108 29.9876L55.5 32.3991V66C55.5 66.2762 55.2761 66.5 55 66.5H18C17.7239 66.5 17.5 66.2762 17.5 66V32.3819L6.86844 29.4824C6.74011 29.4474 6.63102 29.3627 6.5653 29.2471C6.49958 29.1314 6.48264 28.9944 6.51824 28.8662L9.01446 19.8798C10.3054 13.9631 14.0443 10.3613 17.884 8.24939C21.7117 6.14418 25.6702 5.5 27.5 5.5C27.5666 5.5 27.6326 5.51332 27.694 5.53918C35.1266 8.6687 42.7121 6.84188 45.806 5.53918ZM17.5 31.3454V18.5H18.5V65.5H54.5V18.5H55.5V31.3736L65.4248 29.118C65.0765 27.248 64.5001 25.2825 63.9121 23.2775C63.6067 22.236 63.2982 21.1838 63.0169 20.1288C62.0316 16.4342 60.5193 13.3691 57.9063 11.0607C55.3131 8.76982 51.5835 7.17827 46.0709 6.512C42.7721 7.86582 35.041 9.67553 27.4013 6.50068C25.6839 6.52383 21.9677 7.14468 18.366 9.12561C14.7088 11.1371 11.2005 14.5312 9.98859 20.1062C9.98658 20.1155 9.9843 20.1247 9.98176 20.1338L7.61621 28.6498L17.5 31.3454Z" fill="#111111"/>
<path fill-rule="evenodd" clip-rule="evenodd" d="M25 25V23H27V24H26V25H25ZM31 23V24H35V23H31ZM39 23V24H43V23H39ZM47 23V24H48V25H49V23H47ZM49 33V29H48V33H49ZM49 37H48V41H49V37ZM49 45H48V49H49V45ZM49 53H48V54H47V55H49V53ZM43 55V54H39V55H43ZM35 55V54H31V55H35ZM27 55V54H26V53H25V55H27ZM25 49H26V45H25V49ZM25 41H26V37H25V41ZM25 33H26V29H25V33Z" fill="#111111"/>
<path fill-rule="evenodd" clip-rule="evenodd" d="M41.818 31.5472C42.6203 31.7534 43.1036 32.571 42.8974 33.3733C42.3625 35.455 41.3562 37.7429 40.2565 39.4822C40.3646 39.56 40.4729 39.6367 40.5817 39.7122C40.8536 39.9009 41.1298 40.0909 41.409 40.283C42.7855 41.2299 44.2359 42.2277 45.61 43.3761C45.6744 43.4299 45.7376 43.4791 45.8232 43.5457C45.8593 43.5737 45.8994 43.6049 45.9452 43.6408C46.0826 43.7486 46.2544 43.8862 46.4268 44.0466C46.7742 44.3699 47.1823 44.838 47.4157 45.5039C47.6897 46.2858 47.278 47.1416 46.4962 47.4156C45.7143 47.6896 44.8585 47.2779 44.5845 46.4961C44.5716 46.4593 44.5347 46.3839 44.3831 46.2429C44.306 46.1711 44.2148 46.0964 44.094 46.0016C44.0708 45.9834 44.0445 45.963 44.0162 45.941C43.9178 45.8644 43.7944 45.7685 43.6862 45.678C42.4298 44.628 41.116 43.7237 39.7425 42.7783C39.4547 42.5801 39.1641 42.3802 38.871 42.1767C38.7635 42.102 38.6564 42.0264 38.5498 41.95C38.4171 42.1312 38.2822 42.3107 38.1462 42.4853C37.5246 43.2832 36.7648 44.132 35.8676 44.701C34.3823 45.6429 32.6749 45.8647 31.2043 44.9012C29.8606 44.0209 29.0995 42.385 28.766 40.5249C28.5317 39.218 28.3555 37.2363 28.6699 35.7413C28.8131 35.0604 29.1522 34.0045 30.1183 33.4633C31.241 32.8345 32.4033 33.2911 33.2347 33.8673C34.5604 34.786 35.8147 35.8509 37.0032 36.8599L37.0246 36.8781C37.3157 37.1252 37.6029 37.369 37.8879 37.6083C38.7505 36.177 39.5592 34.3102 39.9918 32.6267C40.198 31.8243 41.0156 31.341 41.818 31.5472ZM36.1879 40.0978C35.8251 39.7951 35.4682 39.4921 35.1169 39.1939L35.083 39.165C33.8926 38.1545 32.7658 37.1997 31.6003 36.3848C31.4123 37.3154 31.5092 38.8261 31.7189 39.9955C31.9871 41.4914 32.4999 42.1635 32.8483 42.3917C33.0697 42.5368 33.4724 42.6676 34.261 42.1675C34.7133 41.8806 35.2176 41.3629 35.7797 40.6415C35.9188 40.463 36.0543 40.2816 36.1879 40.0978ZM31.2084 36.156C31.2081 36.1552 31.2156 36.1565 31.232 36.1627C31.2169 36.16 31.2087 36.1569 31.2084 36.156Z" fill="#F92B89"/>
</svg>
