<svg width="72" height="72" viewBox="0 0 72 72" fill="none" xmlns="http://www.w3.org/2000/svg">
<path fill-rule="evenodd" clip-rule="evenodd" d="M50.5065 26.2856C46.036 12.0889 30.0818 6.97016 18.7233 11.1351C12.3712 13.4642 8.99017 17.1269 8.07828 20.6735C7.17361 24.192 8.66047 27.7409 12.3669 30.006C14.6094 31.3763 15.8006 33.5094 15.9407 35.5856C16.0808 37.6625 15.1629 39.6873 13.2052 40.7551C8.62833 43.2516 6.95389 46.9998 7.65355 50.4868C8.35927 54.004 11.5149 57.437 16.9834 59.1774C22.4746 60.925 30.6224 61.2404 37.6406 58.2708C44.6193 55.318 50.5151 49.1065 51.5717 37.692C51.5981 37.4072 51.6208 37.1246 51.6401 36.8442L52.6377 36.9126C52.618 37.201 52.5946 37.4915 52.5675 37.7841C51.4761 49.5743 45.34 56.0989 38.0303 59.1918C30.76 62.268 22.3629 61.9389 16.6802 60.1303C10.9747 58.3145 7.47037 54.657 6.67309 50.6835C5.86976 46.6799 7.84928 42.5374 12.7263 39.8772C14.2985 39.0197 15.0603 37.3919 14.9429 35.6529C14.8256 33.9132 13.8221 32.0672 11.8455 30.8592C7.81696 28.3974 6.08091 24.4261 7.10978 20.4245C8.13141 16.4511 11.8403 12.5938 18.379 10.1962C30.1691 5.87308 46.7869 11.1441 51.4603 25.9852L50.5065 26.2856Z" fill="#111111"/>
<path d="M21.56 49.3404C21.56 51.7136 19.6361 53.6376 17.2628 53.6376C14.8895 53.6376 12.9656 51.7136 12.9656 49.3404C12.9656 46.9671 14.8895 45.0432 17.2628 45.0432C19.6361 45.0432 21.56 46.9671 21.56 49.3404Z" fill="#F92B89"/>
<path fill-rule="evenodd" clip-rule="evenodd" d="M17.2628 52.6376C19.0838 52.6376 20.56 51.1614 20.56 49.3404C20.56 47.5194 19.0838 46.0432 17.2628 46.0432C15.4418 46.0432 13.9656 47.5194 13.9656 49.3404C13.9656 51.1614 15.4418 52.6376 17.2628 52.6376ZM17.2628 53.6376C19.6361 53.6376 21.56 51.7136 21.56 49.3404C21.56 46.9671 19.6361 45.0432 17.2628 45.0432C14.8895 45.0432 12.9656 46.9671 12.9656 49.3404C12.9656 51.7136 14.8895 53.6376 17.2628 53.6376Z" fill="#111111"/>
<path d="M21.56 22.6977C21.56 25.0709 19.6361 26.9949 17.2628 26.9949C14.8895 26.9949 12.9656 25.0709 12.9656 22.6977C12.9656 20.3244 14.8895 18.4005 17.2628 18.4005C19.6361 18.4005 21.56 20.3244 21.56 22.6977Z" fill="#F92B89"/>
<path fill-rule="evenodd" clip-rule="evenodd" d="M17.2628 25.9949C19.0838 25.9949 20.56 24.5187 20.56 22.6977C20.56 20.8767 19.0838 19.4005 17.2628 19.4005C15.4418 19.4005 13.9656 20.8767 13.9656 22.6977C13.9656 24.5187 15.4418 25.9949 17.2628 25.9949ZM17.2628 26.9949C19.6361 26.9949 21.56 25.0709 21.56 22.6977C21.56 20.3244 19.6361 18.4005 17.2628 18.4005C14.8895 18.4005 12.9656 20.3244 12.9656 22.6977C12.9656 25.0709 14.8895 26.9949 17.2628 26.9949Z" fill="#111111"/>
<path d="M33.5922 18.4004C33.5922 20.7737 31.6683 22.6976 29.295 22.6976C26.9217 22.6976 24.9978 20.7737 24.9978 18.4004C24.9978 16.0271 26.9217 14.1032 29.295 14.1032C31.6683 14.1032 33.5922 16.0271 33.5922 18.4004Z" fill="#F92B89"/>
<path fill-rule="evenodd" clip-rule="evenodd" d="M29.295 21.6976C31.116 21.6976 32.5922 20.2214 32.5922 18.4004C32.5922 16.5794 31.116 15.1032 29.295 15.1032C27.474 15.1032 25.9978 16.5794 25.9978 18.4004C25.9978 20.2214 27.474 21.6976 29.295 21.6976ZM29.295 22.6976C31.6683 22.6976 33.5922 20.7737 33.5922 18.4004C33.5922 16.0271 31.6683 14.1032 29.295 14.1032C26.9217 14.1032 24.9978 16.0271 24.9978 18.4004C24.9978 20.7737 26.9217 22.6976 29.295 22.6976Z" fill="#111111"/>
<path d="M44.7648 25.276C44.7648 27.6493 42.8409 29.5732 40.4676 29.5732C38.0943 29.5732 36.1704 27.6493 36.1704 25.276C36.1704 22.9027 38.0943 20.9788 40.4676 20.9788C42.8409 20.9788 44.7648 22.9027 44.7648 25.276Z" fill="#F92B89"/>
<path fill-rule="evenodd" clip-rule="evenodd" d="M40.4676 28.5732C42.2886 28.5732 43.7648 27.097 43.7648 25.276C43.7648 23.455 42.2886 21.9788 40.4676 21.9788C38.6466 21.9788 37.1704 23.455 37.1704 25.276C37.1704 27.097 38.6466 28.5732 40.4676 28.5732ZM40.4676 29.5732C42.8409 29.5732 44.7648 27.6493 44.7648 25.276C44.7648 22.9027 42.8409 20.9788 40.4676 20.9788C38.0943 20.9788 36.1704 22.9027 36.1704 25.276C36.1704 27.6493 38.0943 29.5732 40.4676 29.5732Z" fill="#111111"/>
<path fill-rule="evenodd" clip-rule="evenodd" d="M36.8666 40.3277L42.6246 46.4696C47.0435 41.962 53.2853 35.2861 58.1086 29.4376C60.5901 26.4288 62.6813 23.6565 63.9576 21.5187C64.5988 20.4446 65.0135 19.5644 65.1811 18.9126C65.3587 18.2214 65.2104 18.0212 65.114 17.957C64.9388 17.8401 64.5341 17.7926 63.7532 18.0547C63.0109 18.3039 62.0716 18.7846 60.9721 19.466C58.7781 20.8254 56.0359 22.9266 53.1103 25.3696C47.4197 30.1216 41.091 36.1203 36.8666 40.3277ZM42.0486 47.3173L36.0262 40.8934C33.0596 41.9261 31.5428 43.1255 30.7428 44.4431C29.9089 45.8167 29.7948 47.4069 29.7948 49.3403C29.7948 51.0779 28.9396 52.2874 27.8801 53.0997C27.2774 53.5618 26.6039 53.9002 25.9712 54.1465C30.5875 56.0329 34.1731 55.4172 36.7951 53.8527C39.5518 52.2079 41.3033 49.4778 42.0486 47.3173ZM35.8999 39.8795C40.1337 35.6499 46.63 29.4783 52.4693 24.6021C55.4058 22.1499 58.1908 20.0129 60.4454 18.6159C61.5701 17.919 62.5854 17.3919 63.435 17.1067C64.246 16.8345 65.0705 16.7261 65.6687 17.1249C66.3458 17.5763 66.3434 18.4075 66.1496 19.1616C65.9456 19.955 65.4713 20.934 64.8162 22.0313C63.4998 24.2364 61.369 27.0559 58.8801 30.0739C53.928 36.0785 47.4995 42.9383 43.0563 47.4573C42.2859 49.8262 40.3836 52.876 37.3075 54.7115C34.148 56.5966 29.8147 57.1614 24.3501 54.5173C24.1607 54.4256 24.0489 54.2252 24.0705 54.0159C24.0921 53.8066 24.2425 53.6332 24.4466 53.5821C25.2761 53.3748 26.3826 52.9877 27.2717 52.3061C28.146 51.6358 28.7948 50.6967 28.7948 49.3403C28.7948 47.4062 28.8956 45.5586 29.888 43.9241C30.8762 42.2966 32.6909 40.9657 35.8999 39.8795Z" fill="#111111"/>
</svg>
