<svg width="72" height="72" viewBox="0 0 72 72" fill="none" xmlns="http://www.w3.org/2000/svg">
<path d="M13 24.5V11.5V11H50V26C50 21.5 40.9598 14.9663 41.5 25.5C42.5 45 32.5 42 29.5 38C26.7834 34.3778 27.5 16.5 22 23.5C17.6 29.1 14.1667 26.5 13 24.5Z" fill="#F92B89"/>
<path fill-rule="evenodd" clip-rule="evenodd" d="M12.5 10.5H50.5V26H49.5C49.5 25.028 49.0031 23.882 48.201 22.8488C47.4028 21.8207 46.357 20.9757 45.3613 20.5765C44.3679 20.1781 43.5353 20.2533 42.9598 20.8489C42.3383 21.4921 41.8661 22.8761 41.9993 25.4744C42.2511 30.3841 41.814 33.9249 40.9404 36.4081C40.0644 38.8982 38.7355 40.3577 37.1982 41.0215C35.6682 41.6822 34.025 41.5142 32.5951 40.9406C31.1677 40.368 29.9058 39.3743 29.1 38.3C28.7073 37.7764 28.4011 37.0336 28.1452 36.196C27.8864 35.3492 27.6662 34.361 27.4646 33.3167C27.2837 32.3796 27.1201 31.4141 26.9573 30.453C26.7499 29.2286 26.5437 28.0114 26.3044 26.8692C26.0942 25.8661 25.866 24.9627 25.6028 24.2246C25.3354 23.4745 25.0506 22.9505 24.7567 22.6568C24.6157 22.5158 24.4869 22.4425 24.3706 22.4109C24.2583 22.3803 24.1239 22.3793 23.9508 22.4381C23.5797 22.5642 23.0641 22.955 22.3932 23.8089C20.1372 26.6801 18.0232 27.5775 16.2237 27.3459C14.46 27.1189 13.1962 25.8287 12.5681 24.7519L12.5 24.6352V10.5ZM49.5 22.9627V11.5H13.5V24.361C14.0552 25.252 15.0613 26.1881 16.3513 26.3541C17.6601 26.5225 19.4628 25.9199 21.6068 23.1911C22.3109 22.295 22.976 21.7132 23.6291 21.4913C23.9681 21.3761 24.3066 21.3572 24.6328 21.4459C24.955 21.5334 25.2303 21.7163 25.4636 21.9495C25.9184 22.404 26.2635 23.1 26.5447 23.8887C26.8302 24.6894 27.0693 25.6436 27.2831 26.6642C27.5213 27.8007 27.7374 29.0733 27.951 30.3303C28.1148 31.2945 28.277 32.2496 28.4464 33.1271C28.6456 34.1589 28.858 35.1069 29.1015 35.9038C29.3478 36.7098 29.6135 37.318 29.9 37.7C30.5942 38.6257 31.7073 39.507 32.9674 40.0125C34.225 40.517 35.5818 40.6303 36.8018 40.1035C38.0145 39.5798 39.1856 38.3831 39.9971 36.0763C40.811 33.7626 41.2489 30.3659 41.0007 25.5256C40.8638 22.8571 41.3191 21.1077 42.2407 20.154C43.2083 19.1526 44.5344 19.1674 45.7335 19.6483C46.9304 20.1283 48.1109 21.1021 48.9909 22.2355C49.1721 22.469 49.343 22.7123 49.5 22.9627Z" fill="#111111"/>
<path fill-rule="evenodd" clip-rule="evenodd" d="M7.5 4.5H55.5V31H54.5V5.5H8.5V65.5H54.5V56H55.5V66.5H7.5V4.5Z" fill="#111111"/>
<path fill-rule="evenodd" clip-rule="evenodd" d="M13.2343 10.5L8.38419 4.67993L7.61597 5.32012L12.5001 11.181V59.819L7.61597 65.6799L8.38419 66.3201L13.2343 60.5H49.7659L54.616 66.3201L55.3842 65.6799L50.5001 59.819V50.5H49.5001V59.5H13.5001V11.5H49.5001V29H50.5001V11.181L55.3842 5.32012L54.616 4.67993L49.7659 10.5H13.2343Z" fill="#111111"/>
</svg>
