<svg width="72" height="72" viewBox="0 0 72 72" fill="none" xmlns="http://www.w3.org/2000/svg">
<path fill-rule="evenodd" clip-rule="evenodd" d="M4.5 7C4.5 5.067 6.067 3.5 8 3.5H64C65.933 3.5 67.5 5.067 67.5 7V51C67.5 52.933 65.933 54.5 64 54.5H36.2705L27.9185 67.2736C27.8261 67.4149 27.6688 67.5 27.5 67.5C27.3312 67.5 27.1739 67.4149 27.0815 67.2736L18.7295 54.5H8C6.067 54.5 4.5 52.933 4.5 51V7ZM8 4.5C6.61929 4.5 5.5 5.61929 5.5 7V51C5.5 52.3807 6.61929 53.5 8 53.5H19.2705L27.5 66.0863L35.7295 53.5H64C65.3807 53.5 66.5 52.3807 66.5 51V7C66.5 5.61929 65.3807 4.5 64 4.5H8Z" fill="#111111"/>
<path d="M35.0489 15.9271C35.3482 15.0058 36.6516 15.0058 36.951 15.9271L39.5921 24.0557C39.726 24.4678 40.11 24.7467 40.5432 24.7467L49.0902 24.7467C50.0589 24.7467 50.4617 25.9863 49.678 26.5557L42.7633 31.5795C42.4128 31.8342 42.2662 32.2856 42.4 32.6976L45.0412 40.8263C45.3406 41.7476 44.2861 42.5137 43.5024 41.9443L36.5877 36.9205C36.2372 36.6658 35.7626 36.6658 35.4121 36.9205L28.4975 41.9443C27.7137 42.5137 26.6593 41.7476 26.9586 40.8263L29.5998 32.6976C29.7337 32.2856 29.587 31.8342 29.2365 31.5795L22.3218 26.5557C21.5381 25.9863 21.9409 24.7467 22.9096 24.7467L31.4566 24.7467C31.8899 24.7467 32.2738 24.4678 32.4077 24.0557L35.0489 15.9271Z" fill="#F92B89"/>
<path fill-rule="evenodd" clip-rule="evenodd" d="M34.5733 15.7726C35.0223 14.3906 36.9774 14.3906 37.4265 15.7726L40.0676 23.9012C40.1346 24.1072 40.3266 24.2467 40.5432 24.2467L49.0902 24.2467C50.5433 24.2467 51.1474 26.1062 49.9718 26.9603L43.0572 31.9841C42.8819 32.1114 42.8086 32.3371 42.8755 32.5431L45.5167 40.6717C45.9657 42.0537 44.384 43.2029 43.2085 42.3488L36.2938 37.325C36.1185 37.1977 35.8812 37.1977 35.706 37.325L28.7913 42.3488C27.6158 43.2029 26.034 42.0537 26.4831 40.6717L29.1242 32.5431C29.1912 32.3371 29.1178 32.1114 28.9426 31.9841L22.0279 26.9603C20.8524 26.1062 21.4565 24.2467 22.9096 24.2467L31.4566 24.2467C31.6732 24.2467 31.8652 24.1072 31.9321 23.9012L34.5733 15.7726ZM36.4754 16.0816C36.3257 15.6209 35.674 15.6209 35.5244 16.0816L32.8832 24.2103C32.6824 24.8283 32.1065 25.2467 31.4566 25.2467L22.9096 25.2467C22.4253 25.2467 22.2239 25.8665 22.6157 26.1512L29.5304 31.175C30.0561 31.557 30.2761 32.2341 30.0753 32.8521L27.4341 40.9808C27.2845 41.4414 27.8117 41.8245 28.2035 41.5398L35.1182 36.516C35.6439 36.134 36.3558 36.134 36.8816 36.516L43.7962 41.5398C44.1881 41.8245 44.7153 41.4414 44.5657 40.9808L41.9245 32.8521C41.7237 32.2341 41.9437 31.557 42.4694 31.175L49.3841 26.1512C49.7759 25.8665 49.5745 25.2467 49.0902 25.2467L40.5432 25.2467C39.8933 25.2467 39.3174 24.8283 39.1166 24.2103L36.4754 16.0816Z" fill="#111111"/>
</svg>
