<svg width="72" height="72" viewBox="0 0 72 72" fill="none" xmlns="http://www.w3.org/2000/svg">
<path fill-rule="evenodd" clip-rule="evenodd" d="M36.783 68.5552L68.7817 52.6649L69.4747 20.5507L34.9841 4.14267L3.12817 21.064V52.6685L36.783 68.5552ZM4.12817 52.0347V21.6652L35.0088 5.26184L68.4609 21.1759L67.795 52.0384L36.7719 67.4441L4.12817 52.0347Z" fill="#111111"/>
<path fill-rule="evenodd" clip-rule="evenodd" d="M36.7837 37.8956L69.1956 21.3087L68.74 20.4185L36.7703 36.7791L3.84521 20.9144L3.41113 21.8153L36.7837 37.8956Z" fill="#111111"/>
<path fill-rule="evenodd" clip-rule="evenodd" d="M25.3238 41.0446V32.1004L57.2149 15.6724L56.757 14.7834L24.3238 31.4907V39.4668L17.0793 36.0471V28.3144L49.3273 11.8349L48.8723 10.9444L16.0793 27.7024V36.6808L25.3238 41.0446Z" fill="#111111"/>
<path fill-rule="evenodd" clip-rule="evenodd" d="M37.2769 68V37.337H36.2769V68H37.2769Z" fill="#111111"/>
<path d="M72 50C72 55.5228 67.5228 60 62 60C56.4772 60 52 55.5228 52 50C52 44.4772 56.4772 40 62 40C67.5228 40 72 44.4772 72 50Z" fill="#F92B89"/>
<path fill-rule="evenodd" clip-rule="evenodd" d="M62 59C66.9706 59 71 54.9706 71 50C71 45.0294 66.9706 41 62 41C57.0294 41 53 45.0294 53 50C53 54.9706 57.0294 59 62 59ZM62 60C67.5228 60 72 55.5228 72 50C72 44.4772 67.5228 40 62 40C56.4772 40 52 44.4772 52 50C52 55.5228 56.4772 60 62 60Z" fill="#111111"/>
<path fill-rule="evenodd" clip-rule="evenodd" d="M65.2883 47.5915C65.5139 47.7507 65.5677 48.0627 65.4085 48.2883L61.8791 53.2883C61.7921 53.4115 61.6542 53.4889 61.5037 53.4989C61.3532 53.5089 61.2063 53.4504 61.1038 53.3398L58.6332 50.6731C58.4455 50.4706 58.4576 50.1542 58.6602 49.9665C58.8628 49.7789 59.1791 49.7909 59.3668 49.9935L61.418 52.2075L64.5915 47.7116C64.7508 47.486 65.0627 47.4322 65.2883 47.5915Z" fill="#111111"/>
</svg>
