<svg width="21" height="21" viewBox="0 0 21 21" fill="none" xmlns="http://www.w3.org/2000/svg">
<path fill-rule="evenodd" clip-rule="evenodd" d="M20.5 19.4426L14.8375 13.7501C17.6495 10.3572 17.2986 5.35339 14.0406 2.38616C10.7826 -0.581073 5.76789 -0.464027 2.65189 2.65198C-0.464118 5.76798 -0.581165 10.7827 2.38607 14.0407C5.3533 17.2987 10.3571 17.6496 13.75 14.8376L19.4425 20.5001L20.5 19.4426ZM1.75 8.50009C1.75 4.77217 4.77208 1.75009 8.5 1.75009C12.2279 1.75009 15.25 4.77217 15.25 8.50009C15.25 12.228 12.2279 15.2501 8.5 15.2501C4.77208 15.2501 1.75 12.228 1.75 8.50009Z" fill="#111111"/>
</svg>
